/* XPM */
static char *east[] = {
/* columns rows colors chars-per-pixel */
"64 64 2 1 ",
"  c #FF0024",
". c white",
/* pixels */
"................................................................",
"................................................................",
"................................................................",
"................................................................",
"................................................................",
"................................................................",
"................................................................",
"................................................................",
"................................................................",
"................................................................",
"................................................................",
"................................................................",
".................                              .................",
"................                                ................",
"...............                                  ...............",
"..............                                    ..............",
"..............                                    ..............",
"..............                                    ..............",
"..............                                    ..............",
"..............                                    ..............",
"..............                                   ...............",
"...............                                 ................",
"...............                                .................",
"...............            .....................................",
"................           .....................................",
"................           .....................................",
"................           .....................................",
"................                ................................",
"................                 ...............................",
"................                  ..............................",
"................                   .............................",
"................                   .............................",
"................                   .............................",
"................                   .............................",
"................                   .............................",
"................                  ..............................",
"................                 ...............................",
"................                ................................",
"................            ....................................",
"................            ....................................",
".................           ....................................",
".................           ....................................",
".................           ....................................",
".................           .                  .................",
".................                               ................",
".................                                ...............",
"................                                  ..............",
"................                                  ..............",
"................                                  ..............",
"................                                  ..............",
"................                                  ..............",
"................                                 ...............",
".................                               ................",
"..................                             .................",
"...................               ..............................",
"................................................................",
"................................................................",
"................................................................",
"................................................................",
"................................................................",
"................................................................",
"................................................................",
"................................................................",
"................................................................"
};
