/* XPM */
static char *new_east[] = {
/* columns rows colors chars-per-pixel */
"64 64 254 2 ",
"   c #290B2F",
".  c #473811",
"X  c #4D3234",
"o  c #574818",
"O  c #695A1A",
"+  c #5B4525",
"@  c #6C562F",
"#  c #796432",
"$  c #7A7112",
"%  c #310B44",
"&  c #3F1565",
"*  c #421E49",
"=  c #4A284D",
"-  c #4A2756",
";  c #573559",
":  c #563352",
">  c #623C56",
",  c #542B67",
"<  c #5B3668",
"1  c #52286D",
"2  c #623B69",
"3  c #653A76",
"4  c #622C7D",
"5  c #4C1D65",
"6  c #674756",
"7  c #785857",
"8  c #70514E",
"9  c #7A644B",
"0  c #6A4467",
"q  c #754B68",
"w  c #795668",
"e  c #6B4676",
"r  c #764B79",
"t  c #7A5576",
"y  c #6D5166",
"u  c #7E6068",
"i  c #5E4165",
"p  c #836B36",
"a  c #8C7736",
"s  c #815C59",
"d  c #856A4B",
"f  c #8B7648",
"g  c #947B48",
"h  c #886757",
"j  c #8D7755",
"k  c #957959",
"l  c #906D58",
"z  c #A27E5B",
"x  c #845D68",
"c  c #845B77",
"v  c #876766",
"b  c #936C65",
"n  c #987767",
"m  c #876677",
"M  c #936D7B",
"N  c #9A7778",
"B  c #8E776D",
"V  c #A27C6B",
"C  c #A57D79",
"Z  c #968934",
"A  c #A69736",
"S  c #B5A838",
"D  c #999219",
"F  c #C8BA33",
"G  c #98864A",
"H  c #9A8557",
"J  c #8E8145",
"K  c #A6885A",
"L  c #AA9559",
"P  c #B69A58",
"I  c #A8924C",
"U  c #B8A35A",
"Y  c #B4A955",
"T  c #9B8669",
"R  c #9B8473",
"E  c #A78768",
"W  c #AA9666",
"Q  c #B69969",
"!  c #A98778",
"~  c #B28C7B",
"^  c #AC9675",
"/  c #BB9B7B",
"(  c #B79877",
")  c #B28E69",
"_  c #BBA468",
"`  c #BAA577",
"'  c #AFA36E",
"]  c #C4A859",
"[  c #CABB56",
"{  c #D0BB55",
"}  c #C29C7B",
"|  c #C5A769",
" . c #C8B56A",
".. c #D4BA68",
"X. c #C6A977",
"o. c #C9B376",
"O. c #D4B877",
"+. c #D7CA56",
"@. c #F7F051",
"#. c #D8C578",
"$. c #D7C969",
"%. c #E6D076",
"&. c #FFFB76",
"*. c #F5EC6F",
"=. c #E3DD58",
"-. c #E4DA3C",
";. c #6B3A8A",
":. c #774987",
">. c #7C5487",
",. c #7B4B92",
"<. c #764C8D",
"1. c #865A89",
"2. c #875995",
"3. c #915D93",
"4. c #8A6687",
"5. c #956888",
"6. c #997686",
"7. c #8C6393",
"8. c #8A6499",
"9. c #966996",
"0. c #9A7599",
"q. c #8D7485",
"w. c #A37A87",
"e. c #A67A98",
"r. c #A7739B",
"t. c #8B59A5",
"y. c #9769A6",
"u. c #9D77A5",
"i. c #9A6AAF",
"p. c #A37BA3",
"a. c #A778A8",
"s. c #B37DA9",
"d. c #AA7AB4",
"f. c #A770AF",
"g. c #9D838F",
"h. c #A98688",
"j. c #B38C86",
"k. c #AB9289",
"l. c #BD9B82",
"z. c #B99688",
"x. c #AA8598",
"c. c #B58B99",
"v. c #B99796",
"b. c #AE949A",
"n. c #BCA589",
"m. c #BBA39A",
"M. c #BFB38C",
"N. c #A986A7",
"B. c #B285AA",
"V. c #B68BA7",
"C. c #AC91A9",
"Z. c #BB94AC",
"A. c #B896A6",
"S. c #B887B5",
"D. c #B998B5",
"F. c #AB89B3",
"G. c #BEA8A9",
"H. c #BBA2B7",
"J. c #BDB1A1",
"K. c #9E84A5",
"L. c #C29C86",
"P. c #C49B98",
"I. c #D19E9F",
"U. c #C7A887",
"Y. c #CBB687",
"T. c #D8BB87",
"R. c #C9A898",
"E. c #D4AC98",
"W. c #CDB496",
"Q. c #D6B898",
"!. c #D4AC88",
"~. c #E0BA99",
"^. c #E4BF82",
"/. c #C498A9",
"(. c #C38DB7",
"). c #C699B5",
"_. c #D19CBA",
"`. c #D29FA5",
"'. c #C8A6A8",
"]. c #D2AAA9",
"[. c #CCB6A8",
"{. c #D7B7A7",
"}. c #C8A7B7",
"|. c #D5A9B8",
" X c #CBB5B9",
".X c #D7B8B8",
"XX c #E4BAAA",
"oX c #E3B7B8",
"OX c #E8B5B6",
"+X c #DAC589",
"@X c #D9C698",
"#X c #DED194",
"$X c #E3C988",
"%X c #E9D587",
"&X c #E4C898",
"*X c #E7D49C",
"=X c #F5DA98",
"-X c #F5D78D",
";X c #F9E989",
":X c #FDE997",
">X c #FDF997",
",X c #F9F586",
"<X c #D9C6A8",
"1X c #DAC5B9",
"2X c #D4C7AE",
"3X c #E6C8A7",
"4X c #F3C9AA",
"5X c #E7D7AA",
"6X c #FBD7A9",
"7X c #E8C8B7",
"8X c #F6CAB6",
"9X c #E9D7B8",
"0X c #F7D7B7",
"qX c #FAE6A3",
"wX c #FFF8A8",
"eX c #F7E6B8",
"rX c #FEF8B7",
"tX c #EBE3B9",
"yX c #B990C3",
"uX c #CA96C6",
"iX c #D399C6",
"pX c #CA8EC6",
"aX c #C8A6C5",
"sX c #D8A8C7",
"dX c #CDB8C3",
"fX c #D8B7C7",
"gX c #D8ABD7",
"hX c #E1ABC9",
"jX c #E5B7C7",
"kX c #EAB5D7",
"lX c #EEB3D4",
"zX c #F8BCE4",
"xX c #D9C6C7",
"cX c #DCCED1",
"vX c #E6C7C7",
"bX c #E7D7C7",
"nX c #E7C9D4",
"mX c #E8D8D5",
"MX c #F6D7D8",
"NX c #F5D0C8",
"BX c #EDE2C7",
"VX c #F8E9C9",
"CX c #FDF8CA",
"ZX c #ECE4D5",
"AX c #F3E9DB",
"SX c #FCF7D7",
"DX c #F1D4E4",
"FX c #F6ECE4",
"GX c #F6F2E3",
"HX c #FAF5E4",
"JX c #FEFBE5",
"KX c #FEFCEA",
"LX c #FBF6E9",
"PX c #F8F3EC",
/* pixels */
" XdXxX@X%XrXCX#X#X#.Y tXKXAXH.7.M ) P S F | ;.$.,X>X>X:X4XOXOXhXI._.pXS.f.M %.rXwX$XU.0 t X.O.O.X.} | Q ' ' U.Y.3X3Xn.R.{.2XZX<X",
"O.ZXcXC.A.dXxX5XtXtX5X2XD.4.r r 2.2.2.1.E @.w.C &.>X>X;X6X8X4XOX`.I.I.(.f.3.R.XXR.e.| E ;.M V V X... .Q L ' o.Y.5XQ.R.XX4XSXSX@X",
"I R aXH.C.K.N.C.C.T j m q 0 y q 2 r 1.:.,.q.$.6.*.>X=X>X=X!.L./ I.I.I.I.P.P.P.5.t iX/ P n 1.! x 2 v ) Q G W ` @X@XR.XX4X1XC.2X;X",
"+ d dXdXH.aXaXaXxXH.# L ) M m t > , 2 2 e :.q.) %.>X4X:X%X~ ~ ( } P.L.L.L.j.c q V.lXw.K =XoXw.5.2 , , 0 B Y ` #X@XQ.4X7XfX>.>.j ",
"@ E E.nXMXnXnXnXfXsXl k ~ / ~ N q > - , 4 q 3 r ) *.&.4X5X) E z z K ~ j.M c q 5.iX|.b c w.1.c c 2 3 e < < v ` +XT.&XoXnX XS.B.@ ",
"9 / 6XVXFXFXMXnXnX`.@ h k V V V V b x , 3 q q ,.E 6 Y *.qX! # # p 9 v c c c c V.)./.l m 1.1.c c t q q 2 , 5 u Y.U.[.1XxX}.iX6.@ ",
"H Q.0X5XNXMXnXnXnXh.@ s l V V n z b V b c 3 x ,.` T & y [ ! w : : - - 6 w y 5.V.S.c.l l s c c c q q 2 2 < < e C.e.1X1X[._.iXB j ",
"Y.5X*X@X&XjXfXfXaX/ | | | | } ) V b b V V M q :.o.$.B ;.w E h.7 * = : ; 6 w 4.e.s.h.z l h s s 7 t r 2 2 0 < 4.1.N <X.X).jX|._ Q ",
"#X<X#X#Xo.Q.nXgXgXR.P Q Q ) Q ) V } b V V V z c W @.*.r 3 m ^ T 6 = = : : ; 6 t 4.~ E l l s s s w t 0 0 q 9.c :.d ' ].jXOXx.Q o.",
"+X+X$XT.X.` oXmXDX'.k K ) Q O.| z } V b V b ) a k F *.o.1 r ] I b 6 = : = = = - - b P k l d h s h t t w r.r.x 1.B o.:XT.x.4.k.W.",
"C.C.n.| | _ ( MXDX.Xk Q ] ] ..O.V ) ) z b V b > w H -.&.R 1 ) F G l 6 = * * = ; - w [ K k l d s h v c c r.t C 3.^ =XR.C.dXK.F.C.",
"K.u.K.x.( U L U.DXcXR E.| ..*.%.z z z z z x > > ;.;.Y @.%.7.t +.G G d 6 6 6 0 ; ; , | ] K z z f f f s w.P.P.XXXXW. XH.nXfXaXC.C.",
"C.C.C.N.u.! W K jXmXv.v.r.v.%.%.z z z V M q q > r ;.;.K @.#.C $.[ p ) T.&X0XNX8X{.c.1X<X^ G G a p g K OXNX8X8X|.R.[.vX.XH.}.D.D.",
"H.D.C.F.F.D.v.^ Q nX'.! `.hXC k z C w.r.9.x s 8 7 ,.:.3 R Q h.w.L I _ ] ] { $.$XXX5X>X%.Y H k l g P P O.NX8XfXe.W.{.fX}. XdXH.H.",
"H.H.D.}. X1X[.Z.k.v.! '.MX'.C c.s.s.s.s.s.M x x 8 ; 3 :.e u.4.y 8 b h a P ^ k.e.p.N.C.R Y S A  .%.....%.7XmXN.h.@XW.]..XxXfXdX}.",
"}.}.}.}.H.v.x.0.0.u.R !.oXc.(.S.s.c.s.c.r.w.v x 8 > - < e 8.q.x b > , n j.0.yXyXD.S.uXK.7.g.L %.-X6XeXVXZX X4.W.@X{.3XvXfXfXfXfX",
"vX.X}.A.D.b.Y.+XX.<XW.0.6.( W K H H f d p @ + + + . . > V ^.;X/ g.t e R +.=.&.&.,X&.&.#.L K k.dX{.W. .Y $.@X>.M.#X#XeXrX7X7XvXnX",
".XvXvX XC.C.[.{.{.A.H ^ y.6.k.z.Q P P I I p p @ + + 8 V V *.,X%.J >.<.e j Y +.=.&.*.*.L 7 K.mXFXDXcXcX1Xm.>X2XJ.M.@X5XrX9X7XbX7X",
"1X7XvXNX7XvXvX X|.sXk.J g.u.b x.A.b./ ..] p p @ @ V V E h.h.Y.$.` k.>.>.,.,.,.C.G.o.^ b.cXKXKXKXLXLXPXKXcXxX:X9X' +XtXwX9X9X9X8X",
"9X.X7XbXBXjX|.}.}.dXv.h ` 1XG.c.D.K.u.e.P A p O f Q ! P.hX2.:.1XBXM.g.C.H.H.H.H.K.g.+XBXJXFXMXLXLXLXPXGXHXFXxXtX'  .CXtX*X1X7X0X",
"eXeX7X7X|.).}.}.}. XR.e.e.N.}.).F.N.N.y.3.C A a ] | /.lXfX1.p.5X@X^ 9 >.u u u u t t FXKXJXKXJXLXLXLXGXGXGXHXPXFXJ.+XwXVX0X<X5X0X",
"9X7X'.Z.D.}.).}.}.}.{.A.e.N.Z.).V.N.p.p.9.8.C P ! P.NXnXM r /.#Xl.9 @ 9 7 u q.u u g.KXKXJXJXJXJXJXJXHXHXGXLXLXPX#X7.^ ;XrXbX5X5X",
"a.f.a.F.D.}./.D.). X3X3X{./.Z.Z.B.N.N.p.u.9.1.2.N.7XNXv.> r.W.` j f 9 9 u M m q.m G.KXJXJXKXJXJXJXJXJXJXGXGXJXFX+XM.;.t #.CX1Xx.",
"a.B.B.B.V./.A.A.Z. X<X.X{.{.{./.B.V.N.N.0.8.0.p.n.8X.Xw 5.c.W T j 9 f j j b.A.A.D.mXKXJXJXJXJXJXJXJXJXLXHXGXKXmX_ +.[.yXm 5X9Xc.",
"Z.d.S.Z.B.N.N.N.N.[.Q.{.Q.].].[.).B.B.N.0.N.).F.( #.R N ].V.` U G J j J j R dXdX}.xXKXJXJXJXJXJXJXJXHXHXJXHXJXmXT Z ' dX,.g.@X3X",
"Q.Z.s.V.N.e.e.0.y.m.&X@XXX{.{.{.{.B.e.B.).}.|.N.` _ I E e.u.6._ ' L H J J j A.dXH.dXKXJXJXJXJXJXHXHXJXJXHXHXLXCX2XA Z M.F.8.G o.",
"#.Q.x.u.0.p.p.u.y.x.$X<X@XQ.{.{.{.R.Z.}.}.}.v.0.U.P j.f.s.7.<.:.>.q.R H H T T G.C.G.SXZXJXHXSXJXJXJXSXHXHXJXAX(.C.M.Z L J.,.u A ",
"O.+XU.c.x.x.p.p.y.9.+X*X@X@XQ.Y.T.T.{.}.v.v.B N l.(.pXA./.8.2.2.>.<.<.2.T L T k.b.A.[.v.AXJXKXJXHXHXJXJXJXmX|._.<.,.W A ' H.t I ",
"$.$XQ.3X9X0X9X7X7X'.k.W.Q./ f # f H g m.m.z.v./.R.!.P.)._.3.9.7.3.2.1.,.>.g.' ^ h.N.m.].yXD.AXSXJXJXJXAXvX|.hXjXS.t.,.^ $.SXmX' ",
"' $XrXwX>X>X:XqX<XR.M.$.#.Y.R.U.W d @ j <X.XhXV.&XQ.`.hX(.9.9.9.9.3.2.3.y.8.g.^ ^ g.[.NXv.m ].bXAXnXaXS.(.jXoXoX|.i.t.2.k.2XH.g.",
"h.'.<X+X@X<XR.N.0.C. Xb.$.=.[ ' H g g g ].kXa.P.6XXXOX/.w.r.9.r.9.9.9.e.B.k.g.F.A.v.XX.Xg.h.].sXiX(._.iXsXoXoXOX|.B.t.8.2.- r x.",
"v.A.N.z.U.C.8.8.2.>.8.>.0.[.%X' B 9 y 0 r B.4.&X4X~.E.j.r.e.e.e.r.e.s.N.a./.fXS.yXy.j.n.k.}.gXhXhXhXsXhXhXsXoX.X]./.u.u.u.< t V.",
"g.a.u.n.[ Y Z Z G G J Y.=X&XD.N.g.B j Z Z n t.H @ o # _ z.z.v.c.v.c.r.9.3.v.Y.j H R R.a.B.1X9X9X9XbX5X<X@XW.W.W.@XQ.[.2XmXtX&Xn.",
"$Xa.i.H.@X#. .Y +.[ $.o.b.p.0.p.K.u.u.g.T Z q.v o . . g U.z.z.P.P.v.c.e.9.r.x.N j.c.+Xn.t./.]. X5X5X@X@X@XY.Y.M.Y.Q.2XZXKXrX%.#.",
"..N e >.>.K.K.0.t ' @Xh.e.c.c.x.u.y.y.>.>.B f M O o l . f R.L.z.v.c.z.z.h.w.x.|.lXS.R.O.h.u.U.B.S.A.[.#X+Xo.o.X.` M.bXKXFXG.Y.%.",
"L K 6.>.e i < 0 r q.P o.n.c.e.9.9.7.0.8.8.,.4.B a O L.f . E.U.} / P.P.j.j.R.gXjX).B.].X.W 6.A./.d.i.y.u.n.#. ._ U.W.GXAXdXC.F.` ",
") ) L./.).V.V./.D.V.U.U.L.L.z.! q.5.>.>.7.7.8.9.E I L ^ d U.!.U.Q } P.I.sXkXlXsXs./.OXs.e.B./.).S.d.y.y.f.v... .M.@XbXfX.Xq y ( ",
"z ) ~.E.|.'.`.).).V./ l.l.z.~ ! V ! M 1.7.4.5.8.+Xq.R $.Q z.` Q ) C /.lXlXlXjXB.r.(.0X_.B.B.S.).S.a.f.d.f.i.k.Q.[.'..XoX0.= u L ",
"z Q O.U.`.)./._.(.v./ l.( / l.! E ! ! C 5.7.g.>.%.+X3 w Y M c.).sXgXgXlXzXzX(.r.r./.0X8XOX|./.S.S.s.s.d.f.i.i.F.H..X7X/.> : n I ",
"Q _ X.X.X.|._.uXS.L.X.X.X./ / ) E ! ! ~ j.g.0.>.#.*.u ;.t E ~.oXgXgXgXgXzXhX9.9.9.].6XXX8X7XOX|.(.S.S.d.f.i.F.S.! 5X.X7 * v U I ",
" .o.o.o.X.U.sX).S.v.o./ Q / } / ~ ( j.~ j.L./ w.o.D + 7.3 m %X6XsXgXkXkXkX9.3.3.1.E.6XXXXXXX|.OXsX_.pXs.a.S.kXd.I { g.X y xXQ Y ",
".. ...O.| | '.uXZ.A.o.U.X.X.o.o./ / ( j.j.z.L.] U.S $ d ,.i $.;X6XjXgXkXB.t 1.r 4 z.wX6X6X4X4X8X7XuX(.).|.sXkXy.( U ' bX1XcX[.#.",
"AXBX3X .] U Q ).D.A.U.o.O.O. .X.l./ / ~ z.L.].c.m ` D . w 4 H &.:X6XfXgXa.4.1.t e 6.>X6X6X6X6X8X8XOXsXsXsXhX.X9.^ W BXPXcXH.FXLX",
"LXKXKXBXO.P P / D.Z.Q.Q.$X....| n.` X.L.z./.jX_.>.2.H $ @ c y @.,X:X0X'.}.x.5.5.>.4.-X:X=X4X3X4X6XqX8XsX]./.h u W.BXFXZXZXxXAXHX",
"GXGXGXPXFX@XQ L v.G..Xv.xX9X .| l.X.U.U./.|.'.|.0.,.>.T D | w.$.&.>X$X| K V E E ^ h.'.@X4X$XO...%.$XO.P.j.7 9 }.BXBX2XZXGX2XFXPX",
"HXGXGXAXmX XR.` W  X1Xk.G.jXk./ U.v.c.B.V./.v.'.A.2.>.:.n Q .XmXqX%.I p O O p H ~ l.` #.;X6X0X6X+X) K g 8 9 mXfXSXGXcXLXmXxXPXGX",
"HXGXHXmX}.{.1XZX9X[.k.R.nX[.m.).B.B.s.x.e.c.v.A.h.0 e e 3 t.DXKXMXv.n # # + > < 2 : = 6 I +.%.W f p p p v MXaXdXKXKXPXLX2XxXGXGX",
"GXLXLXFXFXmXHXZXdXxXQ./ .X|.D.Z.V.c.x.w.6.N h.N B w - 2 3 2.iX].R.6.u.R.P.5.:.:.>.:.:.< - : Z a 9 b M 0.yXfXF.ZXJXSXZXGX XcXZXGX",
"HXGXLXKXJXJX5XX.| T.n.C.1XW.W.Y.o.X.Q ) Q Q X.( n k B n ~ } X.~.h.1.2.W.*.I O + + . O p # 9 t 1.m n W ] $.Q.d.+X#.#X@X' 2XAXZXZX",
"KXJXmXAXKXHX9XbX1X[.` @XKXbXz.n.o.| ] ] | | O.T._ n n ~ L.A { ;X:X>.1 ; 6 @ # $ O O O @ w 7.N.9.:.e e 0 n *.'.A.#X5XtX+XJ.ZXGXZX",
"KXKXAX7XbXbXbX|.}.FX9Xo.bXZXz.q.7.w.) ] ....O.^.T.E ! l.w.2 k *.%Xk.1 , - 5 , >.u.` W 6.V.c.A.V.6.:.e <.t.0.%XH.tXSXVX=X<XZXGXJX",
"JXKXKXBX7X.X).Z..XZXxXW.tXDXjX|.3.2.2.c } *.$X-X| E L.! c ;.<.T./ @XD.i.i.F.yXyXK.C.%X+XU.w.4.t r :.:.i.i.t.0.].GXJXcXBX5XAXSXJX",
"SXCXKXmX'.A.A. XGXbX[.).0.a.hXiX3.3.1.;.;.j.,X%.Q | w.M s.9.B.T.Q 5XCX}.cXmXmXmXmXmX^ ! z.U.R.v.x.9.3.f.yXf.t.8.J.$.;XGXCXVXJXKX",
"SX7X.XN.x.N.A.AXKXmXU.x.9.0.(.).5.3.1.c 3 1 w.o.b ~ C /.).0.R._ W.VXSXVXZXSXLXLXKXmX/ l.L.L.R.{.{.R.V.u.yX).Z.2.H.i Z =.CXbXJXJX",
"S.F.f.N.V.e.cXLXLXbXU.R.P.c.V.r.3.1.1.:.3 3 5 5 p.N L.oXc.e.U.+X6XVXSXSXbXcXHXJXLX1X( / L.U.R.E.E.E.].P.yXS._.2.cX X  * _ fXvXdX",
"uXD.D.S.r.|.JXGXKX9XU.E.R.R.I.c.3.3.1.c 3 3 r r.n.V OXV.V./.%X6XVXSXSXCXSXG.'.}.D.U.X.o.o.!.Y.Q.Q.W.R.{.XX_.(.9.J.JXC.:.>.xX{.xX",
"fXuX).S.S.FXKXKXPX2XU.E.R.P.I.v.r.3.3.c :.3.V.3.L $.I.v.].5.^.qXCXSXSXCXCX9XV.A.s.v.o.O.U.U.!.W.Q.Q.{.{.XXXX8Xx.g.CXGXu.:.q.<X@X",
"Q.dXuXS.xXPXmXcXcXm.K / X.z.L.L.j.5.c 3.e.s.c.3 ) ..{ } c.3 M XXCXCXCXCXrXCX.XD.S./.| } X.T.^.T.~.Q.~.XXXX7X0XqXk.tXJXcX8.>.` @X",
"+XQ.).).dXsXaXH.D.C.H Q / / l.l.z.C r.c./.r./.r L | x 1.iX4 % * < t J.wXrXwXeX}.(./.} -X-X-X$X^.Q.~.Q.4X7X8XNXA.R J.SXJXH.t.B Y ",
" .O.R.mXcXdXaXD.F.u.L P Q } } } !.o.R.A./.P.E.P.~ x c lX(.3 , 4 - 5 ;.1.*XwXqX4XpX(.!.XX#.-X#.O.~.~.~.4X8XNXMXjX1 , R SXSXN.t Z ",
"A  .9XJXJXKXHXGXFXcXh E X.o.o.O.X.o.Y.P.P.E.P.x !.6XlX_.c :.:.:.,.3.3.;.:.P.:X:XOXpX].w.2 x X...&X4X-X~.vXMXMXDX0., % q.SXtX[.L ",
"T #XKXJXKXCXCXVXZXk.k.` O.!.} ( X.o.o.Q z.j.> x ~.4XI.w.s.f.3.3.f.y.t.3.9.y.c.$X-XlXe.V P.iXI.XX~.L.r.3._.MXMXMXxX3 -   u VX Xh.",
"b.1XZXBX2Xm.C.K.0.0.K.k. .+.{ O.O.o.| Q C > 3 C !.~.c.`.lXpXpXs.f.r.f.(.S.|.'.e.~ P.} w.OXOXc.C q r 3.r.(.jXMXMXbX0.2 ; % F.aX X",
"1X}.C.R.U.x.y.8.>.>.<.u.K.x.Q | ~ M c ;.< t 3.V } L.XXjXiXpXpXpXs.s.iXiXS.w.x < 5 2 ~ 4X`.c q q r c w.e.V.|.NXnXbX.X>.e < D.cX2X"
};
