/* XPM */
static char *new_north[] = {
/* columns rows colors chars-per-pixel */
"64 64 157 2 ",
"   c #050000",
".  c #0C0503",
"X  c #0E0807",
"o  c #0F0908",
"O  c #110704",
"+  c #120907",
"@  c #190A07",
"#  c #140C0A",
"$  c #190F0C",
"%  c #16100F",
"&  c #1B110E",
"*  c #161110",
"=  c #1D1311",
"-  c #1E1817",
";  c #210F0B",
":  c #21130F",
">  c #221512",
",  c #291713",
"<  c #231916",
"1  c #2A1915",
"2  c #251D1B",
"3  c #2B1E1A",
"4  c #311E19",
"5  c #27201F",
"6  c #2A201E",
"7  c #33211D",
"8  c #2D2523",
"9  c #2F2827",
"0  c #312623",
"q  c #312926",
"w  c #3A2925",
"e  c #352C2A",
"r  c #392E2B",
"t  c #36302E",
"y  c #3B312F",
"u  c #3C3432",
"i  c #3F3A39",
"p  c #40322E",
"a  c #413633",
"s  c #413836",
"d  c #443D3B",
"f  c #493E3B",
"g  c #46403E",
"h  c #4B413E",
"j  c #50423E",
"k  c #4C4442",
"l  c #4F4A49",
"z  c #504542",
"x  c #534947",
"c  c #584A46",
"v  c #544C4A",
"b  c #5B4E4B",
"n  c #56504E",
"m  c #5A504E",
"M  c #5C5453",
"N  c #5F5856",
"B  c #614F4B",
"V  c #615654",
"C  c #625856",
"Z  c #635C5A",
"A  c #6A5E5B",
"S  c #67605E",
"D  c #6A615E",
"F  c #6D6563",
"G  c #6F6968",
"H  c #716563",
"J  c #7A6762",
"K  c #716866",
"L  c #756C6A",
"P  c #7B6D6A",
"I  c #76706E",
"U  c #7B716F",
"Y  c #7B7472",
"T  c #7F7A79",
"R  c #817673",
"E  c #817876",
"W  c #847C7A",
"Q  c #8A7F7C",
"!  c #86817F",
"~  c #8A817F",
"^  c #878280",
"/  c #8B8482",
"(  c #8E8886",
")  c #928582",
"_  c #938986",
"`  c #948B8A",
"'  c #9A8E8B",
"]  c #97908F",
"[  c #9B918F",
"{  c #9C9593",
"}  c #9E9896",
"|  c #AC948E",
" . c #A29693",
".. c #A39996",
"X. c #A49C9B",
"o. c #A99D9A",
"O. c #A7A19F",
"+. c #ACA19E",
"@. c #B9A39D",
"#. c #A7A2A1",
"$. c #ADA5A3",
"%. c #AEA9A7",
"&. c #ADA9A8",
"*. c #B1A5A2",
"=. c #B3A8A6",
"-. c #B5ACAB",
";. c #B9AEAB",
":. c #B6B1AF",
">. c #BAB1AF",
",. c #BDB4B2",
"<. c #BEB8B7",
"1. c #C2AFAB",
"2. c #C4B1AC",
"3. c #C2B5B2",
"4. c #C8B6B2",
"5. c #C2B8B6",
"6. c #CAB9B5",
"7. c #C4BCBA",
"8. c #CABEBB",
"9. c #D1BFBB",
"0. c #C7C0BE",
"q. c #CAC1BE",
"w. c #D2C2BF",
"e. c #CDC4C2",
"r. c #CEC9C7",
"t. c #CFC9C8",
"y. c #D3C5C2",
"u. c #D3C8C5",
"i. c #D8C9C6",
"p. c #D4CCCA",
"a. c #DBCECB",
"s. c #D4D0CF",
"d. c #DDD1CE",
"f. c #D7D1D0",
"g. c #DCD4D3",
"h. c #DED8D7",
"j. c #DFD9D8",
"k. c #E0D2CF",
"l. c #E2D6D3",
"z. c #E4D9D6",
"x. c #E6DCDA",
"c. c #E9DEDC",
"v. c #E7E0DE",
"b. c #EAE1DE",
"n. c #E7E1E0",
"m. c #EDE5E3",
"M. c #EFE8E6",
"N. c #F0E7E4",
"B. c #F0E9E7",
"V. c #F3ECEA",
"C. c #F9EFED",
"Z. c #F6F0EF",
"A. c #F9F1EF",
"S. c #F6F2F1",
"D. c #FAF4F3",
"F. c #FDF8F7",
"G. c #FFFBFA",
/* pixels */
"+ # $ X # # & * X & # # + $ > = & > # % : & # D x.S.S.Z.b.z.B.b.b.b.b.b.C.7.q @ # # &   ..F.z.V.B.V.m.m.m.x.V.D.n.5.P M 8 + > # ",
"& # = + & # + & + # # # % $ > > & # # + & =   ] V.V.V.V.c.z.B.c.b.c.c.b.B.o.= # & # %   H A.b.V.V.V.m.m.V.z.g.e.5.G 3 9 # # > & ",
"& # & # & @ + = X # $ X > & > & # + X # # # t e.l.m.b.V.z.l.m.c.B.N.z.z.A.E % # % % X   f V.N.c.V.n.m.N.S.e.L ( k e O X # # # & ",
"> # + - k u G [ L u 2 # & > & $ & # + $ # . { M.c.b.m.V.V.b.c.k.B.m.m.q.g.g   # # # #   e b.S.6.z.Z.V.B.D.X.2 2 & * # + * + X # ",
"= $ 0 F >.3.x.V.V.<.{ 8 $ > $ @ & # # & . u u.x.B.b.c.z.b.c.z.w.b.x.x.-.M = X # X X &   g B.V.l.i.F.V.m.F.T . + # # & + & & + # ",
"$ 2 ~ a.N.B.V.V.V.m.D.Y : > # + > & # & r >.x.d.V.x.k.c.z.i.l.w.8.=.%.z # X # & + X 2 g [ V.M.V.m.V.V.b.B.r.t   # # # # + = & & ",
"@ x l.z.c.m.m.V.V.x.m.V.e X # # # # & t ' z.b.l.V.e.=.z.=.o.| *._ f s & & # # 3 9 v / g.i.z.V.V.m.m.V.b.m.F.,.v 2 X # : @ & & & ",
"0 o.D.g.m.c.B.V.M.m.b.S.g . # X   t c W m.c.M.z.V.X.V -.f s e C x < @ = # & # P ,.p.m.S.w.y.V.V.M.n.V.B.V.V.V.V.{ d q 0 # & # = ",
"P b.C.c.m.M.Z.m.l.m.m.V.G   & #   I e.u.V.x.5.$.` G 2 r = + # & + % & & . z b { G.M.l.V.n.x.B.m.m.M.V.V.S.V.V.D.Z.0./ ! U A > > ",
"2.B.b.a.b.V.m.x.z.x.B.5.3 X > + u h.b.x.M.q.A f < & $ # # % + = & + & + 2 ` d.v.V.b.a.b.g.v.b.b.m.a.i.a.f.S.V.V.B.n.m.V.g.q.) J ",
"d.x.a.c.n.V.8.} 5._ ) G O # * . ! F.d.d.5.W & < # # # & # # o # % # X y o.g.M.V.V.B.z.h.X.#.,.=.,.P A ) D h.n.x.V.m.m.V.b.w.9.| ",
"z.N.3.<.>.O.P r k 7 3 * $ > + u p.V.x.a.A e # & # & % + # # . + # # # _ V.n.m.x.S.B.N.%.2 9 x z v 2 < r 8 k I -.m.m.x.z.c.9.y.@.",
"z.d._ f u 6 = = : , & # + < q ..D.x.B.*.9 @ * # = > < = u g # + # @ i n.B.V.v.i.D.x.z. .+ $ # % # # & # + X + f *.n.d.x.b.a.k.1.",
"B.*.h * X $ $ & = 4 & & &   ` m.m.V.x.Z $ = # X + a Z #.=.7.} u # . F D.V.V.M.x.S.c.c.,.6 + % # # # $ # + & # X 6 ;.l.m.m.c.m.w.",
"S.~ @ # & & : & & > & # $ - $.B.x.D.%.3 $ & % t N -.,.B.x.m.V.u.u   M G.m.M.V.V.V.c.m.b.[ u + = X % = + # & * # O 3 ~ C.B.m.C.c.",
"V.m + = # # $ # $ & # # = ! m.m.N.m.I . & # ! g.z.m.l.m.m.c.m.A.D   u Z.m.v.V.V.Z.x.x.V.m.e.N x x N K 2 + & > * + . 6 -.A.N.V.B.",
"c.=.= $ = # & # # # %   k s.S.m.c.=.a @ . n m.F.B.m.z.m.m.l.x.G.Y X X r.V.a.V.V.V.b.z.V.N.m.m.r.r.j.x...Y 2 $ * X # # 8 7.A.M.n.",
";.V.M @ = + $ & + X # . ` A.m.m.c.B , 3   ^ G.n.m.c.z.b.b.l.u.G.Y     o.C.k.m.V.m.m.c.V.V.b.V.S.S.M.V.g.c.$.u & X # *   I Z.l.b.",
"1.N.b.H # & + & # X X & e.Z.m.M.B.j ; 1 + u n.B.n.c.l.b.y.i.d.A.$.u k *.m.a.c.V.m.S.m.m.m.V.V.V.m.z.V.l.l.B.' Z t % X e / m.x.l.",
"w.B.V.z.c 3 $ # X + + # -.D.M.B.N.m $ 4 & + G n.m.d.8.u.=.+.b.B.B.8.d.N.c.a.k.N.b.V.n.l.m.V.V.m.m.y.a.x.g.m.m.p.3.] ^ $.k.z.m.m.",
"l.Z.b.V.>.2 & $ X + *   K -.g.x.,.e X = > $ r / e...O.W b z ..D.n.c.N.B.m.c.k.x.m.z.m.l.m.V.V.m.c.l.y.m.z.V.V.V.m.V.D.z.b.b.m.V.",
"<.M.B.M.m.i @ > # X & = - f E } v $ # # $ $ & 2 k g u 2 &   D D.m.m.B.m.V.B.l.z.V.m.b.m.B.V.V.m.x.N.b.m.c.B.V.m.m.N.x.z.V.d.,...",
"I X.V.z.*.q + * = + $ : + = < 9 % > # + & # # + X X + # # X I A.m.m.c.V.N.Z.x.x.V.V.x.m.V.V.x.5.5.d.q.V.z.z.S.B.V.m.m.m.B.p.M > ",
"- 2 ( K m $ # # # + # $ & : $ X # > # X & > X X o # + &   r e.m.m.V.x.Z.c.n.z.x.V.V.V.m.B.V.%.m g M W g.z.y.V.V.V.x.m.S.n.S # X ",
"X X - # & & X % # # # + & > & # # & # X # > & # # $ + # # } m.m.B.V.c.V.m.z.z.c.V.N.V.S.n.b.V . & X & L +.4.B.B.N.z.m.S.e.= # # ",
"# # * + # & # # # # # # & & > $ # & & # X $ = # & & # . s b.c.V.B.V.l.m.N.c.c.B.V.l.b.V.b.C.H @ < % . = r R l.B.B.k.b.V.{ + # + ",
"+ # > & $ & & X # # X # & $ = & # $ $ & + # < # > & #   u m.z.V.m.m.3.z.m.m.N.m.N.k.a.N.b.S.-.> > $ + & & < ' D.m.c.z.x.F . X # ",
"X + > # & # & + X X X + # $ > $ $ $ $ < # # 4 X > $ *   k Z.b.V.V.V.4.c.V.m.V.m.c.b.l.m.V.V.C.M O # # & & X 8 $.V.c.6.$.u X o # ",
"X # & > # = 1 f 9 e 2 o < + & & # $ X # & X > X $ $ & + t n.m.V.Z.V.a.c.N.m.Z.m.c.N.b.b.V.m.D.o.. # & & # & # 2 X.7.) v * # # # ",
"X # & 1 $ 5 W >.p.d.$.F Z * X X # < 2 = X X * X + $ * @ 8 g.B.b.V.N.c.m.B.B.V.m.m.m.c.m.V.M.m.r.= @ * + # = & $ 5 C r $ + # + X ",
"X # # 7 j I x.B.m.m.S.x.e.[ C f f G ( ( 9   & # X & = X u b.m.c.S.c.c.N.V.m.x.V.m.N.n.b.B.m.z.C.k O * # X # & # + # # # o X X X ",
"o o 8 M X.b.V.m.b.b.V.B.m.B.c.g.e.p.x.V.Q   # + # # + # R N.m.m.N.m.b.m.B.Z.z.V.m.b.N.V.M.M.a.B.K O & & # # # # & # # # X X X # ",
"# * _ 5.c.N.B.m.m.V.V.V.x.c.c.m.C.V.m.C.X.# # X + $   q y.b.l.m.z.m.V.V.V.D.n.b.V.m.m.m.N.m.k.V.... # & # # # + = # # % X X # = ",
"$ # e.V.V.V.m.N.m.m.m.c.b.z.i.c.m.m.m.F._ + # @ # $   G N.c.m.m.z.b.V.V.B.V.w.z.V.V.V.x.c.b.c.x.g.> @ # # # * # , # + # # . X = ",
"$ - p.V.V.m.c.m.V.b.N.m.m.a.6.d.m.Z.m.S.N X & $ # #   _ F.c.c.m.b.m.S.B.z.m.2.a.V.V.S.m.c.c.z.w.A.D   > + + > $ # % # = & X + # ",
"X - -.V.S.m.z.m.V.V.N.V.b.k.l.a.x.V.N.D.N . & > = #   Q F.V.m.m.n.V.Z.m.k.z.4.6.Z.V.Z.N.m.b.l.a.m.d.f $ = + & # + + + # $ X # # ",
"+   R C.V.m.c.c.V.V.V.m.n.=.e.g.x.V.M.M.} = # 2 > #   N V.V.m.m.z.b.B.c.k.k.w.9.V.V.S.b.m.V.z.m.x.V.{   * # # & # + # X # X * & ",
"# X z N.c.m.x.m.N.N.V.m.n.W Q l.B.V.m.V.x.x + > $ + # $ p.D.c.m.b.c.N.z.c.b.z.a.b.V.C.c.x.V.c.N.N.N.e.= # @ X = # # = + + X $ 1 ",
"# + 0 x.z.z.m.V.V.m.S.V.e.f 2 e.V.m.m.b.V.,.Y a @ X = . Q G.n.c.c.B.b.b.N.B.m.z.z.n.V.N.z.V.b.N.m.;.5.2 . # X * # $ , # + $ # 1 ",
"* @ 8 d.l.l.V.V.m.m.V.V.8.e b n.m.x.c.m.m.N.m.-./ - $ @ R V.m.N.B.V.B.B.m.C.m.z.c.c.S.V.m.b.b.V.V.K b # . # o > & # = # # = & & ",
"@   f c.c.x.c.V.c.N.V.x.m.7.u.V.N.m.m.n.m.m.n.N.n./ k b ;.m.V.V.l.B.m.V.m.V.B.x.x.a.V.A.l.x.b.V.n.z $ + + # + > > $ + # # + $ $ ",
"k k ,.N.m.m.m.b.c.m.N.c.V.V.V.m.m.S.B.m.N.V.m.c.V.N.6.7.m.x.N.V.l.c.c.m.B.x.V.V.m.3.u.e.O.a.b.S.7.2 , > X + X * # # X - % - $ 2 ",
"p.g.S.b.V.V.V.m.c.z.V.V.V.m.V.V.B.S.x.z.N.x.z.c.V.b.z.x.D.c.n.x.c.i.m.b.V.c.m.m.m.$.D c x Z u.V.p.* $ 4 X X # # # X q W / [ } / ",
"V.V.n.m.m.m.V.V.x.l.m.S.N.m.V.V.V.V.x.z.x.z.y.m.b.V.x.b.S.V.N.3.x.c.c.b.n.x.0.5.( u = > , X x l.V.N X 2 X # + $ 9 M -.z.N.c.V.B.",
"S.b.c.m.x.V.m.V.N.c.x.V.m.n.V.V.m.N.m.m.l.N.z.c.c.V.l.m.S.V.N.8.c.m.g.>.' ,.M M * X $ = > & X -.G.x.Z F 2 # 5 Z } f.B.m.x.a.c.N.",
"V.x.x.V.b.V.m.V.m.z.x.n.m.B.M.p.m.c.x.N.c.N.c.m.N.V.V.V.V.N.m.z.z.Z.5.A - u + + + + & & $ >   M G.Z.x.p.,...{ p.V.z.x.c.z.a.a.B.",
"m.c.b.m.V.V.m.B.M.u.e.,.5.x.,.m $.n.m.V.m.N.N.m.c.V.m.m.V.V.N.m.b.D.W # + X # & * + $ * # & + 8 h.D.V.S.G.B.B.V.V.m.z.u.,.a.k.V.",
"l.l.N.m.Z.p.-.-.5.D Q L x M u $ 8 8.V.V.b.N.m.V.l.c.V.N.m.V.N.z.m.g.u . = # + # > $ + # # + # # k <.V.B.V.m.m.V.V.S./ M h c 5.A.",
"V.z.c.c.n.R a u d $ 8 9 # X X #   Q A.m.V.N.m.V.l.l.c.V.V.D.f.' u.Z + & = # = # $ $ * $ > # O *   d { $.D.b.N.b.V.5.8 # # . t 5.",
",.V.B.p.{ e @ X $ > @ $ # % # #   Q A.c.V.N.V.c.d.d.a.V.D.x.] 7 b * # # $ + $ $ @ # # $ > # X = & X $ c 3.3.*.;.p.v + # # = @ r ",
"2 ( n.,.1 X + # , > @ = # @ # X e *.V.m.V.V.Z.c.z.a.l.l.-.k 2 1 $ + $ # $ + # $ # * + # = + # # & # : 7 0 p f z k + = $ X + $ # ",
"# @ ` Z , - X # & > # + # $ * * } m.m.V.m.V.V.m.m.l.m.p.s   @ > = $ > $ # # X & @ = * + # $ # @ & > 1 4 , $ $ & @ $ # # # X + > ",
"# + * X 3 > # $ = & > # # # 8 &.N.V.m.M.c.b.V.m.m.l.n.g.x + + > # * = $ + + # = # > & $ X # * X 2 ) Y w > & # = # , X # # . # % ",
"# # X . = & & = & # $ #   9 -.V.m.m.x.c.B.b.V.V.x.m.N.p.,.{ z & @ # @ + X * # # # - $ $ X @ $ 9 U A.g.s @ $ # * X < # # # X # # ",
"X = = + $ $ # # # + $ %   u n.B.c.m.c.g.z.m.V.m.l.n.V.c.m.N.a.O.> X X X X + * # $ - a > X $ w R x.V.V.Z . # # @ * + # + @ X # & ",
"+ # = # $ $ + # # + # X # X  .V.m.m.B.x.d.B.V.V.x.a.S.m.m.N.z.F.Y   * o X X & @ 1 A $.' F x o.l.B.V.X.d + O 2 f M M < * # # $ * ",
"# + & # & > # # # + # # > $ z 5.,.x.V.n.c.m.m.V.V.a.b.V.m.b.z.S.e.* $ $ @ # # # # ,.V.c.x.d.x.x.V.-.a = # 2 Z q.e.a.5.E + & @ # ",
"& # & # & * & & # # = # & > & t v ..r.0.,.z.S.V.x.c.l.N.c.c.c.m.V.x @ * X + o > @ k d.V.m.c.m.z.S.A + # # ` z.V.n.m.b.M.Y W k - ",
"Q k p q O # # & # # = # # = & X * 2 x M F ` s.V.g.z.z.V.N.z.V.m.F.,.3 @ # X # * - > ' S.b.c.N.V.B.e + $ d n.m.m.N.m.b.V.z.f.:.$.",
"x.f.>.T   # # # # # & + @ $ # # X X . . * > M p.c.c.k.V.V.N.V.m.B.V.o.3 . # + & @ $ r g.V.c.n.V.n.L < 2 ^ V.b.V.V.m.N.V.z.z.V.V.",
"m.V.m.<.# # X + X + & X & $ + X # # # # $ &   G m.N.c.B.m.V.V.c.m.l.c. .u . o o X *   ` F.m.z.m.n.j.` Y g.S.N.m.V.n.B.V.z.c.b.N.",
"V.m.7.{ X X = # X X # X & % X X @ > = X $ >   f m.B.N.N.z.m.V.m.c.y.x.m.f.8 X # # # O M c.m.c.m.m.m.l.a.m.V.N.m.B.V.m.m.n.V.l.d.",
"-.,.} d . # > * % # & + # = X X # 3 4 # # $ $ = q.F.V.N.c.c.x.m.V.b.k.l.S.{ X # # # @ e 8.m.b.B.m.V.m.b.b.V.m.B.m.V.x.z.x.z.O.U ",
"d 8 2 X + + & # $ & # # + & # * # 1 4 > & # + q u.S.V.V.m.m.c.V.N.m.z.z.V.p.< # + # & > q.V.b.V.N.V.z.g.x.B.m.V.V.m.6.<.&.C h e "
};
