/* XPM */
static char *new_south[] = {
/* columns rows colors chars-per-pixel */
"64 64 144 2 ",
"   c #878577",
".  c #8B8B7E",
"X  c #948F7D",
"o  c #928F80",
"O  c #8F938E",
"+  c #9A9584",
"@  c #9D9886",
"#  c #92958D",
"$  c #99978A",
"%  c #97998D",
"&  c #9D9B8C",
"*  c #929691",
"=  c #979991",
"-  c #9B9C92",
";  c #A29E8C",
":  c #9FA197",
">  c #A4A18F",
",  c #A4A395",
"<  c #AAA695",
"1  c #ADA996",
"2  c #A3A69C",
"3  c #ABA798",
"4  c #A7AA9E",
"5  c #ACAA9C",
"6  c #B2AD9C",
"7  c #B5B19E",
"8  c #BAB49D",
"9  c #A5A9A1",
"0  c #ADADA2",
"q  c #A5ACAA",
"w  c #ACAFA8",
"e  c #B1AEA1",
"r  c #AFB0A4",
"t  c #A7B0AB",
"y  c #AEB4AC",
"u  c #B4B2A4",
"i  c #BAB6A3",
"p  c #B7B8A7",
"a  c #BDB9A5",
"s  c #B4B5AA",
"d  c #B9B7A9",
"f  c #B6B9AD",
"g  c #BDBBAC",
"h  c #A6B3B6",
"j  c #AFB5B1",
"k  c #B1B7B2",
"l  c #B5BAB2",
"z  c #BCBEB2",
"x  c #B3BDBA",
"c  c #B9BEB8",
"v  c #C0B7A4",
"b  c #C2BBA5",
"n  c #C2BEAC",
"m  c #C1BFB1",
"M  c #BEC1B4",
"N  c #B6C1BD",
"B  c #BDC3BB",
"V  c #C5C1AD",
"C  c #C9C4AD",
"Z  c #D1CBAD",
"A  c #C4C3B4",
"S  c #CAC6B3",
"D  c #C7C8B7",
"F  c #CCC9B5",
"G  c #C3C5BA",
"H  c #C8C7BA",
"J  c #C6C9BD",
"K  c #CCCBBC",
"L  c #D1CCB4",
"P  c #D1CEBB",
"I  c #CED0BE",
"U  c #D6D0B5",
"Y  c #D4D1BD",
"T  c #D9D4BD",
"R  c #DED8BB",
"E  c #BCC6C3",
"W  c #BEC9C6",
"Q  c #B5C7CC",
"!  c #B9C7C9",
"~  c #BECCCA",
"^  c #BFD0D1",
"/  c #C2C7C0",
"(  c #C5CBC3",
")  c #CBCEC2",
"_  c #C3CECA",
"`  c #CACDC8",
"'  c #D1CFC1",
"]  c #CDD1C4",
"[  c #C5D1CC",
"{  c #CCD3CB",
"}  c #CFD8CF",
"|  c #D3D3C4",
" . c #D9D6C3",
".. c #D6D8C7",
"X. c #DCD9C5",
"o. c #D3D6CA",
"O. c #D9D7CA",
"+. c #D5D9CC",
"@. c #DBDBCC",
"#. c #C2CFD1",
"$. c #C6D3D2",
"%. c #CAD6D3",
"&. c #CED9D6",
"*. c #CEDBDB",
"=. c #D0D7D2",
"-. c #D5DBD3",
";. c #DBDED2",
":. c #D2DDDA",
">. c #D9DFD8",
",. c #E1DCC5",
"<. c #E1DECB",
"1. c #E1DFD2",
"2. c #DDE0CF",
"3. c #D6E0D3",
"4. c #DDE1D5",
"5. c #D5E1DC",
"6. c #DCE4DB",
"7. c #DFE8DE",
"8. c #E3E1CC",
"9. c #E3E3D4",
"0. c #E8E6D4",
"q. c #E2E5DA",
"w. c #E9E7DB",
"e. c #E4E9DC",
"r. c #E8EBDD",
"t. c #D4E1E2",
"y. c #DBE6E2",
"u. c #DDE9E4",
"i. c #DEECE9",
"p. c #E0E7E2",
"a. c #E3EBE3",
"s. c #EAEEE3",
"d. c #E4EEEA",
"f. c #E8EEE9",
"g. c #EBF2E6",
"h. c #E7F1EB",
"j. c #ECF3EC",
"k. c #F1F6ED",
"l. c #F1F9ED",
"z. c #E7F3F0",
"x. c #E9F3F0",
"c. c #EEF8F2",
"v. c #F1FAF4",
"b. c #F3FCF8",
/* pixels */
"P | P n 4.q.7.e.] ) ] | | K | @.@.9.;.>.9.4.;.o.z z K G n n n m v v n i H ;.>.9.] ) | H P S S ' ' P P C C F | B ] ] S S C F M 8 ",
"P  .P P H K 6.4.4.] o.) K D K ;.9.a.w.6.6.q.O.' m z K ) H m m H v n i 4 { ;.-.q.O.d ,. .P S F  .;.@.| P V V K ] @. .Y A 8 C V V ",
"n m Y  .S A 7.5.4.7.o.| X.A V I @.4.@.4.>.-.) / H H F K s w G ' S 5 4 3 M ;.;.-.>.s S ,.Y L n P @.2. .F V V I ..O.F P V V Y X.Y ",
"S P X.O.4.4.4.4.3.4.9.O.O.Y F F Y | | 7.>.) ) ' O.Y  . .H w m O.d u 6 S u z o.-.;.@.) H m m L v S X.X.Y L C I | Y V Y P | ..Y F ",
" .+.6.4.4.9.a.u.o.@.;.9.<.X.Y Y | J o.a.o.M K X. .T R ,.,.S H O.V C C F A g 6.d.6.6.q.@...2.2..... . .T R U ] F X.Z Y I P | F | ",
"o.=.| K | ;.7.4.| Y | @.;.| @.;.9.@.u.] N N D Y Y ,.,.,.,. .' 1.+.V V C Y K z.-.+.a.a.g.e.I ..I Y X.2.Y U I | J ..2...J ] | o.] ",
") D g F H ( H F D n a V ..| X.@.| -.h./ ) @...2.<.,.T ,.,. .' <.X.M 7 C Y { { { +.;.] ] @.| J I 9.@.3.@...| ] | | J D 4.;.+.+.-.",
"H A K K K z d V C a > X n H P K A ;.-.[  .8.} 2.1.,.T T T  ./ X.@.F C A D G g ) B A M : g D ..3.o.} E } } ] | +.O...{ 3.-.;.-.} ",
"| Y L S J ] g n C i @ @ n F d A D +.6.O.K F Y B 8.O.X.X.R ..B o.9.@.K ] A Y J M H K G 9 u , g O.] J J K ' O.9.q.7.+.h.e.4.-.;.| ",
"..| K Y  .K A M D H 6 < C F m w 4 A 4.9.D C V ..0.Y T 8...] B B K F 3.J A Y Y G z m g m u 0 ] +.I D | @.) H @.w.7.a.a.u.5.&.| ;.",
"K U P K K M ] G K D n S P P g o . < ] f M M 7 Z 4.F K | ) 3._ J G ] 4.]  .X.O.z w e d s 0 M q.+... .@.z H | H  .@.+.q.6.{ +.o.O.",
"F C U V S A ] ( H H n b P | 5 + < < A d 7 7 M M G J M B { 6.e.g.7.5.f H  .| H m K s 5 g M K 2.8.O.) ' P A P ,.n D F @.o.I +.{ I ",
"C C Y F D J o.3.) K K V K m g 1 > 0 M z u 5 7 M o.| I N E d.f.l.h.-.l s M ) z D S C a d +.>.2.I d 5 s d m S L n V K Y K J I o.| ",
"V C T K D M +.4.o.D Y F | K m u < 5 s D u p A ] O.] I [ *.d.f.c.h./ B ( -.] m A Y S ' H 9.q...d ; 1 e g e n v b F F K P K U ) D ",
"Z M D V S | ] ..{ K P L Y | ' n 7 5 u | z ] ] | K ) / %.u.i.d.u.) k B } 7.) g S  .T L o.s. .z $   1 n m n P  .| F K O.| ] L ..) ",
"D Z b M D Y ..9.J ) P  .P O. .P V g d ] 2.@.O.[ [ / [ [ %.:.t.%.E / ] ) +.+.H S L S L ' O.) A & o & m A n F | ] G +.9.X.P n D ] ",
"K L 6 M 8 M C 8.+.@.K  .Y Y  .S K m H H m s z ;.;.@.K { _ / +.[ ~ ( o.o.;.o.S S C V K Y Y a 7 7 < - 9 n 8 F G B D { @...| V D d ",
"I ] Y 2.D X.X.] -.O.F L T Z Y  .<. .O.m i a g A H K g u A '  .| %.( ] o.4.X.D K S S Y ..@.n n V g g e u a K K Y J | O.] ] ..X.K ",
"( 4.4.e.4.q.+./ ] | | Z Y L ,.@.1.O.O.,.S S n 6 A S i 3 d V J O.` { | | ;.| P P F K @.r.| V F Y L m | S F ) O.,.,.@.@.O.) K A B ",
"I 3.+.6.3.] +.7.] @. .P X.X.<.0.1.<.1.,.U b v i d n e 6 g g D ' ] ;.O.' ;.;...] @.q.w.r...C g V m P P ,.| X.0.<.0.0.9.9. .H z M ",
"K G J 4.3.{ } q.o.-.;.| | O.1.q.9.0.0.,.n i L n V 5 p C H A n K ) -.( G 7.a.q.g.l.g.g.@...J V I | L L  .,.P  .<.<.0.;.q.@.' K A ",
"| ] ..+.4.{ u.j.>.&.-.{ o.O.;.1.s.9.;.O.<.,.P  .X.p D K ) m S D J -.[ 4.s.a.h.x.j.k.4.A g S H +.Y n S L P U U U  .<.;.q.0.X.| Y ",
"O.4.4.6.+._ u.5.a.a.3...0.0.;.q.w.a.q.q.w.<.P '  .K K o.| P D d s { 7.h.4.4.u.e.l.q.g f a g V M n S n L S F  . . .,.O.@.<.O.X.<.",
"| | Y ) G ] ~ ! z.d.7.9.4.9.e.s.q.q...@.s.q.;.o.H | H J K ,.| 0 l -.a.6.3.3.4.s.l.| p p S p u g n v n v 8 S O.<.O.<. .Y ,. .P X.",
",.X.T C g G *.3.3.+.+.7.q.7.g.s.O.O.| L X.3.} / ] 2.8.4 q <.m j &.-.) ) 6.7.a.+.` z z d i 7 J i 7 8 v v d  .-.O.9.@.I Y Y K A F ",
"R | U L V A ] M 8 C M K ] 6.q.q.4.+.K T T | ..| ] Y J s z H B ` *.) f z O.a.p.-.` m d g < p o.f 1 6 8 F A o.;.9.9.O.X.K K | A K ",
"Y U U C M ..A 6 1 V C D D ;.q.9.4.g...7 R Y Y @.o.B f  . .m / / o.] G z A -.s.a.6.;.O.| A M A g n i 7 6 , H 4.9.9.{ O.J Y 8.X. .",
"Z Z U F ] S a 8 < 7 g D 4.:.a.4.r 7.4.r 8 F K R K ] O.F n P m ` ( J ) f e l q.w.w.q.;.) +.P A H 8 6 5 7 g | @.9.9.) B @.T Y Y K ",
"Z L L 4.M V L b 8 p ' s :.i.e.] # M 3.B D p A F A 0.,.v 8 L m ' ` ' ' / | ) O.z G o.O.O. .P S | A F A G J @.;.@.9.( ..T C U X.J ",
"R T F 3.M a L L P g m z $.a.z u 4 % D { I C F g D P m v v m  .m m ` m c G H ] m H 1.A g H ' m D K V K D g V |  .@.{  .S a Y <. .",
"L F H ] p a Z Y O.| H H ( { 4 F M p M J _ B G p e e P S v n L m K m z s f m O.O.O./ e 9 6 d u e u H K | O.A A ) -.4.) I 8 M K  .",
"F V G ] f M F @.9.;.-.' O.{ u n b C V A D y B J D n ' P m L T  .m o.m m o.o.O.>.1.1.' m 5 3 6 m A ..L V D P K o.o.>.E K V K | T ",
"L F ) -.m n m 1.w.>.1.` o.>.z n n P S H m z n c o.H H m H  .X.d k ;.) ;.;.O.' q.q.q.q.O.s 5 a I X.| S 6 8 n P | o.) / l K K D L ",
"L a B ` i n Z U O.O.O.H ' { o.H F e 0 e m m m f ` ` ( s u A D / >.=.{ 4.;.;.| 1.1.9.w.a.O.e g @.T n V Z V a P Y A ) W z z F D A ",
"Y A c l d n b U O.O.' H ' ` m m a e 3 $ e H ' g E :.-./ / c z -.$.-.;.] ) -.;.o.;.q.q.j.q.| K O.| a V P  .F z A s s c ` B u A s ",
") } / m n L C P ' ' ' ( ' / l g a L e 2 3  . .m w :.t.6.6.-.-.=._ 7.e.;.O.| { { 7.q.O.q.a.>.] ` ) S F X.<.<.L n s r : B ] s s J ",
"{ N t J m v L n m ` ` ' { ` m e 8 F 6 - 5 A m u e z &.t.:.*.6.4.r.s.q.+.] H D o.{ q.7.j.h.s.) { o.H n P D s d 0 2 d % M 3.I ] 4.",
"M l t M m 3 v 6 v H O.' p.;.` c i 3 u g e a i d H S ` 6.t.t.7.7.q.r.1.) z H K { ;.4.-.j.h.v.[ ` ) ' n n e 2 * O r p g f 6.3.-.6.",
"M f y f m m m k v e m =.j.a.-./ 4 9 V F 6 1 6 K H H G :.:.6.a.q.O.I | ' z o.-.-.H K H o.j.z.` ` m m K P S 0 O = V C K r { 7.[ [ ",
"J f M J ` O.m m m l ` k.c.j.h.( ] ) T S v 6 3 K g H ( %.*.=.>.@.@...O.1.H ) ) g D 6 A P / z.{ k ) m | O. .H 6 < i D s = J -.J D ",
"_ J D Y ] G K H J / a.v.z.b.c.-.s ` P C C v 6 i d D { *.:.:.;.;.4.9.9.4.4.@.H d Y > , | s %.-.9 c m O.1. .' A g A D s # D } ] N ",
"E ] M X.@.| K l z k >.b.d.q.u.o.G K A S C 8 1 < % 5 ` %.$.:.a.w.4.4.4.} 0.w.d 7 X.F F ..H k 5.J w m / 1.;.H A H D g 5 : M +./ x ",
"[ M K 8.Y A z k l z p.v.d.{ G z ) H V S 8 8 6 , 5 O.{ [ >.t.s.r.9.4.} ;.O.2.a V S , | O. .B _ [ k ) z ' ' ) ] K n p 0 u ..&.[ &.",
"] G | 8.| D B N B ` y.f.;.] o.K D O.K g b 0 u g H 4.:.{ p.d.a.9.2.4.3...X.T X.,.F > u 2.9.o.+.o.k j o.G z d I | F n D ..{ 5.u.-.",
"z H | G O.X.H E E x :.p.a.q.;.@.I ] ] M u 9 0 ) ] [ %.-.6.6.a.4.e.4.;.@...V Y 8.K , e O.1.] { 0./ q / O.D f D Y ..I 2.o.{ u.5.%.",
"l n g m @.w.] ( ( _ t.p.s.d.] ..} _ N K A M ) { _ E Q &.4.r.r.s.e.;.@.9.| K O.8.X.S S 1.q.1.) | ( x k B ] ..I I @.o..._ &.-.[ J ",
"M M H A O.{ ( #.! ~ f.k.j.f.6.5.%.! h / ( N N x B ! ~ a.g.r.q.7.a.6.-.;.2.@.;.8.0. .O.q.1.1.O.| { _ ( [ ] | ..2.-._ ( J [ { ` o.",
"_ ) ) ' ' / ( #.#.*.p.p.p.j.6.} } -.~ *.%.x B J ] @.+.&.4.3.7.a.7.} ;.{ | @.@.9. .K 9.q.-.1.` ' @.` -.%.7.r.4.3.&.{ ] / } W ] ) ",
"] ..I ..X.4.-.[ %.t.t.u.h.a.;.) ' =.` ` A H ' ' ' 1.1.>.O.+.q.4.) ' 1.] ( o.@. . .' o.q.s.s.| | O.J W $.7.q.4.3.&.[ ] %.} | ] I ",
"J 2.+.2.2.3.9.o.$.Q *.*.5.6.+.o.;.O.) P H H  .O.' |  .O.Y ;.o.K ' O.' P o.-.A K ,.' ) ;.;.9.w.9.@.] 3.&.-.6.3.$.^ *.$.B ..Y J @.",
"| q.4.+.3.+...e.) W ~ %.>.>.;.;.;.) P | P L  .P ' ' O.G m O.@.H D K n b A ( f A <.Y J ;.K | @.-.) W 6.&.$.&.$.~ %.&.*.;.4.;.M I ",
"2.9.g.q.r.I M D ] 3.*.g.q.` o.] | ' H C S C S n F ) -.) ) H ) ' ' L n F C z M M  .m K X. .' ` | B [ $.[ y.&.%.$.[ { -.;.+.K V | ",
"0.s.g.s.2.M Y ..I 3.u.l.>.+.( A A V 8 a b V K g A m o.+.) z 3 n ' S m Y C S ] ] A z | | | ) | ( B { =.q.6._ #.$.) [ O.| Y A A @.",
"3.e.g.3.2.| I 2.D J o.5.s.-./ M V i i 1 8 V ] K f m q.9.G e 3 6 n S S L C g O.3.-.| | ) ] ) ( z J ] @.O.O._ _ #.`  .O. .S C S @.",
"] e.r.] | I B M 2 { } 7.y.5.o.z f a 6 8 7 K | ;.` z q.@.g n n 6 < n S v v b P ;.-.;.-.o.] ( / J D m n P H ) ] o.] X.O.O.P F Y  .",
"..4.6.7.I M M ) 2.] ] | -.5.-.J m A g H D F O.@.O.O.@.| u S L 6 ; 6 n n V S g Y ) +.-.-.{ { o.F u 6 5 6 P ) H )  .K S n C C | R ",
") ] / &.+.J M K Y F Y b K 3.6.:.) ] -.o.K D H K ' | 1.H v L m 6 + + i @.<.| D | | -.5.} } o.| A i e 5 g P ' ) +.O.K S i b S P O.",
"N M M { 6.I S A a C F S K ] ` -.{ J o.+.| ' I .. .<.1.O.v m U m 8 @ n <.) D <.<.7.u.[ f I o.{ o.A i 6 n H ' K | K S n V A m H ` ",
"y r 4 G 6.] | J a F Y P F K G ] } ] M M H O.q.2.| O.1.1.' ' Y T H 5 Y O.o.] | | 6.6.B A F I ..K K D 6 g D A A g g S V A D g G -.",
"f f r g ] ..O.] Y Y U T L F | Y F ] D V z ] @.2.K K q.1.1.o.' F n ' n P ] 4.7.[ -.-.O.Y Y +...T  .n u a m a g g d a A n S a G [ ",
"0 g A d V 4...H P F P S S P O.P V J @.....2.M D S D ;.9.@.o.' H D I L Y ] -.;.4.-.-.+.o.O.@.Y P Y L b n V M a A f f g S S i B z ",
"r f d D D O.9.D P  .P S n | | P F I 9.e.] A F K C n O.@.O.K D m 7 > 6 K  .o.6.a.q.;.{ @.;.@. . . . .K D C A D A s V A C L b z ] ",
"d A J A D ;.r.@.z P H m D P | P Y  .3.@.| H H | O.O.O.;.O.D A V 8 1 f J O.+.-.h.q.;.O.| O.O.' P K | K K K J ) } t y A D V d g A ",
"i n | 6.q.r.q.w.) o.@.m P ) | X.| X.4.7.2.| | @.6.) ) +.J F g a a r M | o.} ;.u.;.| ' | | K K K K K F S F I D { -.B g J K F g i "
};
