/* XPM */
static char *west[] = {
/* columns rows colors chars-per-pixel */
"64 64 2 1 ",
"  c #FFFA00",
". c white",
/* pixels */
"................................................................",
"................................................................",
"................................................................",
"................................................................",
"................................................................",
"................................................................",
"................................................................",
"................................................................",
"................................................................",
"................................................................",
"................................................................",
"..............................      ............................",
".............................        ................     ......",
".......      ...............          ..............       .....",
"......        .............            ............         ....",
".....          ............            ...........           ...",
"....            ...........            ...........           ...",
"....             .........             ...........           ...",
"....              ........             ..........            ...",
"....              ........              ........             ...",
"....               .......              ........             ...",
".....              ......               .......              ...",
"......              .....                ......             ....",
".......             .....                ......            .....",
".......              ...                 .....             .....",
"........             ...                  ....            ......",
"........             ...                  ...             ......",
".........             ..                   ..             ......",
"..........            ..                   .             .......",
"..........            ..                   .             .......",
"..........             .                                 .......",
"...........                                             ........",
"...........                                            .........",
"...........                                            .........",
"............                                          ..........",
"............                                          ..........",
"............                                         ...........",
".............                                       ............",
".............                                       ............",
".............                                      .............",
"..............                   ..                .............",
"..............                   ..               ..............",
"...............                  ...              ..............",
"...............                 ....              ..............",
"...............                 ....              ..............",
"................                .....            ...............",
".................              ......            ...............",
".................             ........           ...............",
"..................           .........           ...............",
"...................         ...........         ................",
"....................      ..............       .................",
".........................................     ..................",
"................................................................",
"................................................................",
"................................................................",
"................................................................",
"................................................................",
"................................................................",
"................................................................",
"................................................................",
"................................................................",
"................................................................",
"................................................................",
"................................................................"
};
