/* XPM */
static char *new_west[] = {
/* columns rows colors chars-per-pixel */
"64 64 202 2 ",
"   c #7E4E5B",
".  c #78565D",
"X  c #5C5369",
"o  c #5B5A75",
"O  c #644E63",
"+  c #635065",
"@  c #785B67",
"#  c #645671",
"$  c #7B626D",
"%  c #6D6279",
"&  c #67637C",
"*  c #77697E",
"=  c #7C697D",
"-  c #76677E",
";  c #804B57",
":  c #914E56",
">  c #88595D",
",  c #9E5457",
"<  c #9D545A",
"1  c #9D5B5C",
"2  c #AA4F59",
"3  c #AB4D57",
"4  c #A5535B",
"5  c #AB555C",
"6  c #A45A5B",
"7  c #AB5B5F",
"8  c #A05257",
"9  c #B2545E",
"0  c #B25A5F",
"q  c #9B655E",
"w  c #95655E",
"e  c #A4625E",
"r  c #AA615F",
"t  c #9A5D65",
"y  c #995F68",
"u  c #AD5660",
"i  c #A65B62",
"p  c #AD5C62",
"a  c #AF5F69",
"s  c #B25661",
"d  c #B85762",
"f  c #B35C63",
"g  c #BA5E65",
"h  c #B65F68",
"j  c #BA5F68",
"k  c #8D6565",
"l  c #80606B",
"z  c #9E6562",
"x  c #946A63",
"c  c #9C6C63",
"v  c #9B636B",
"b  c #956C6E",
"n  c #9D6E6C",
"m  c #96626F",
"M  c #9E7167",
"N  c #9D736B",
"B  c #93706E",
"V  c #8C6675",
"C  c #8A6D7C",
"Z  c #876B79",
"A  c #956E71",
"S  c #9D6E72",
"D  c #976D7B",
"F  c #8A727D",
"G  c #9C7172",
"H  c #987477",
"J  c #A46564",
"K  c #AC6465",
"L  c #A46B64",
"P  c #AA6A66",
"I  c #A6676A",
"U  c #AD646A",
"Y  c #A56C6A",
"T  c #AB6C6A",
"R  c #B46266",
"E  c #BA6266",
"W  c #B26967",
"Q  c #BC6967",
"!  c #B46469",
"~  c #BC646A",
"^  c #B46A6C",
"/  c #BC6A6D",
"(  c #A27167",
")  c #A87167",
"_  c #A4746B",
"`  c #AA746C",
"'  c #A5796E",
"]  c #AA796F",
"[  c #B4766D",
"{  c #A36A71",
"}  c #BD6771",
"|  c #B56C72",
" . c #BD6C72",
".. c #BD6F79",
"X. c #AC7373",
"o. c #A67B72",
"O. c #AA7C73",
"+. c #A27E7D",
"@. c #AB7E78",
"#. c #B37474",
"$. c #BC7175",
"%. c #B37976",
"&. c #BC737A",
"*. c #B57C7B",
"=. c #BE7A7D",
"-. c #C1656B",
";. c #C26A6E",
":. c #C86C6F",
">. c #C26267",
",. c #C26672",
"<. c #C46D72",
"1. c #C96E73",
"2. c #C36D79",
"3. c #C96F7B",
"4. c #C47275",
"5. c #CA7275",
"6. c #C5757A",
"7. c #CB757B",
"8. c #C47A7C",
"9. c #CC797D",
"0. c #D1767D",
"q. c #D17B7D",
"w. c #D17677",
"e. c #AB8076",
"r. c #AD837A",
"t. c #B3817E",
"y. c #B0887E",
"u. c #BA807F",
"i. c #576283",
"p. c #6E6A82",
"a. c #6A6681",
"s. c #716C85",
"d. c #7C6D85",
"f. c #867181",
"g. c #9F7786",
"h. c #9C7986",
"j. c #A47D84",
"k. c #AC7E8D",
"l. c #BF7881",
"z. c #C67680",
"x. c #CC7682",
"c. c #C57C82",
"v. c #CC7C82",
"b. c #C67F88",
"n. c #CC7D88",
"m. c #D27D82",
"M. c #D37E89",
"N. c #B38683",
"B. c #BA8483",
"V. c #B48983",
"C. c #B98A86",
"Z. c #B58389",
"A. c #BC8C8A",
"S. c #BE908C",
"D. c #C38286",
"F. c #CD8185",
"G. c #C5848A",
"H. c #CC848A",
"J. c #C48A8D",
"K. c #CC898D",
"L. c #D38285",
"P. c #D98386",
"I. c #D78884",
"U. c #D4848B",
"Y. c #D9868B",
"T. c #D5898E",
"R. c #DB8A8D",
"E. c #DB8887",
"W. c #C1918F",
"Q. c #DC908F",
"!. c #CF8690",
"~. c #C68B91",
"^. c #CD8C93",
"/. c #D38691",
"(. c #D48C93",
"). c #DA8C93",
"_. c #D68E99",
"`. c #DA8D99",
"'. c #DA8795",
"]. c #C39191",
"[. c #CB9295",
"{. c #CE939A",
"}. c #CF9B9B",
"|. c #D49195",
" X c #DB9195",
".X c #D5949B",
"XX c #DB949B",
"oX c #D59A9F",
"OX c #DC989D",
"+X c #E28D8E",
"@X c #E08E92",
"#X c #E29293",
"$X c #E1959B",
"%X c #E3989A",
"&X c #DB96A1",
"*X c #DD99A2",
"=X c #E496A2",
"-X c #E19BA5",
";X c #E49DA8",
":X c #EB9EAC",
">X c #E6A0AB",
",X c #EAA2AE",
/* pixels */
"Z u u j 4.7.q.E.E.m.m.m.v.L.v.v.9.8.W 6 . = J 5 Q 4.;.5.7.9.0.9.L.U.E.).m.8.6.$.u . & v 5 5 f / $.8.U.+Xm.P.L.m.L.L.q.9.&.R , X ",
"A.' f ! / ;.6.9.L.9.9.m.m.L.9.7.F./ r ] [.{.e.K ! / >.3.7.7.5.9.q.L.m.E.6.4.4.! J A..XV.P 5 p R Q 6.q.E.m.m.x.0.v.m.7.6. .R N Z.",
"&XW._ R g E Q 6.5.4.4.6.7.8.$.4.;.f ( .XoX{.oXy.K h E -.5.4.5.q.w.9.9.5.<./ E ) A.-X&X*XW.T 0 R R -.q.q.3.0.7.7.m.5.<.;.Q O.~.*X",
"^..X[.] s h E ;./ ,.<.6.6.4.4.;.s _ J.XX|.|.OX*Xr.R s R / / 6.7.4.5.7.;.E E ) B.XX*X.XOX;X}.] f 0 g 4.5.1.w.3.5.7.5.>.R O.G.OX.X",
".X|..X].' h / E E ~ Q 5.1.;.E E _ D.'.|..X|..X.X.Xe.K ! ! E ,.<.<.<.-.-.E P u.`.|.XXXXOXoX;XoXo.R E ;.:.-.1.1.,.5.;.R o.H.(._.|.",
"XXOX(.|.^.] E g ~ E h / ;.Q R _ =.U.U.`.T.).OX(.|..Xe.U f s Q ;.-.Q j j ` *.M.T.).T.).|. X|.=X.X] K ! / j >.Q ~ ;.W O.c.U.(.(.).",
").`.|.K.OXJ.' h ! E R / / ! _ $.m.H.U.).T.T. X).K.^.(.r.K u / <.-.E h ` #.M.Y.U.R.T.).T.|.).K._.^.' W  ./ f ! R J _ 8.n.F.T. X).",
").R. X X(.'.G.o.h ! R ! ^ ' ^ 6.8.=.F.R.R.T. X XT.H.!.(.y.K U ! ! ! ` T 3.m.U.Y.R.T.R.).T.T.U.G.(.D.o.4.W ! ! L _ <.x.8.8.T.U.H.",
"R.T.H.T.H.D.H.B.' U a I ( p } 8.x.v.L.Y.Y.U.T.R.).'.H.H.G.o.I a ! ] P ~ 6.m.U.Y.@X@X`.Y.R.R.T.H.c.c.#.' U U Y L ~ 3.x.x.v.U.F.U.",
"L.U.F.z.b.c.&.6.{ _ I N 6 f 4.5.5.q.v.v.v.v.U.U.U.).T.H.z.&.N Y { z 9 ! <.9.9.P.P.R.Y.Y.U.E.v.H.c.&.| c G G q 3 h } 3.9.x.R.U.E.",
"U.L.m.n.v.v.=.#.K > s.t 5 j <.5.7.q.q.6.8.x.L.v.U.T.M.n.8.&.i & Z 8 R R <.6.w.L.m.L.m.m.L.+XL.F.b.4.#.5 # d.4 5 f E / 4.9.R.E.R.",
"E.L.m.9.8.6.8.4.u > % Y u d <.9.5.9.9.q.x.9.m.9.q.L.x.8.4.^ i @ C K f g g 4.q.m.9.q.x.m.L.P.m.9.9.z./ 6 $ F P u 7 R / /  .9.E.E.",
"P.0.0.7. . .8.;.1 N.|.N._ h :.<.:.5.9.7.7.6.9.9.8.6.7.$.! 7 o..X.Xo.K 9 0 1.m.w.7.q.6.q.m.q.9.5.8. .p ' .X.Xy.J s E / ,.4.x.U.P.",
"m.0.5.3. .<.4.J r.&X&X{.C.] Q ;.-.:.4.1.1.5.9.6.5.6.7.Q p o.J.XX*XoXe.K g 5.5.:.5.3.5.5.7.9.4.:.4.f M J..X{.oXy.K s ;.~ ;.5.5.0.",
"0.5.1.1.-.Q P @.(.&XOX.X*XJ.] g -.-.:.1.5.7.5.5.-./ ;.0 o.G.(.[.[.OX|.e.R ;.;.1.5.:.1.5.5.w.5.4.Q ' J.`.OXOXOX*XV.P ~ ~ E E / 5.",
";.>.-.E >.P *./.`..XOX|.OX;X[.` ~ >.>.1.q.0.;.;.E E Q ' D.U.K.K.|.J..X{.e.W ;.:.:.>.>.1.>.5.1.Q ` G.`. X(.OXOX*X-Xy.W E E Q / / ",
";.-.R E ` *.U./. X X X X|.OX:XJ.` E Q 5.q.:.>.! R K ] l.b.H.H.|. X(.|.(.~.e.^ } -.;.;./ ;.;.! ' D.'.`. XXXXXXXOXOX&Xt.U h ! / E ",
"4./ f ` #.x.v.F.T.|. X).T.).%X-XA.` <.6.<.E E j K _ 6.z.v.H.F././.`.XXK.^.^.O.^ E 4.<./ <./ ' 4.m.U.).). X@X X X XXX.Xe.W h Q / ",
";.^ _ ^ <.$.8.=.c.F.H.F.D.H.T.T./.*.] } / / E ^ _  .6.F.v.v.U.R.T.T./.T.H.!.b.o.T ! ^ ! #.M | 7.9.U.T.R.@X@X`.).`. X`.H.@.T h  .",
"T _ K j  .^ 8.=.8.v.v.b.v.F.H.c.v.l._ ' U U T ( ! 4.m.L.v.m.U.F.U.R.).).H.H.c.#.N Y i L z 7 ~ 4.m.R.Y.E.@X@XY.).#X#XT.T.l.' Y U ",
"N 1 9 ! |  .6.8.9.x.8.v.L.9.L.F.8.#.| w b S z 5 ! 4.q.m.m.m.m.v.H.U.U.U.F.c.l.&.U k D x 4 9 E ;.6.m.L.I.E.U.U.E.Q.R.Q.U.c.| n S ",
"V 4 R ^ ! 4.5.7.7.0.9.8.F.L.9.L.8.$.U , X - 5 5 R / 0.q.m.9.L.m.9.v.m.9.9.v.v.| h   i.m 2 5 E ;.5.x.7.F.U.m.I.P.F.L.L.F.z. .: o ",
"+.K u / <.<.<.5.4.6.6.6.q.U.I.8.8.| 7 z g.N.) 9 h E <.7.0.7.9.9.9.x.9.7.8.6.8.! 6 o.k.r.J g R Q ;.5.7.L.q.m.L.6.6.6.8.6.8.! z H ",
"*XV.K / <.~ / <.:.6.4.8.q.E.q.8.4.9 L A.*X*XW.T d ! E -.7.0.6.9.9.4.6.8.<.8.<.p ' ~.*X*Xy.W R E E / 4.8.7.9.L.6.$. . .^ / T Z.*X",
"*X-XV.` ! >.;.g -./ ^ <.8.q.5.4.h ) J.XXoX.X.XS.` f E ~ 1.5.5.w.5.<.4.4.} / R ' ^.^.A.{.>XV.P ~ E E ,.<.q.9.9.5.;./ ! u L t.(.oX",
"*X>X>XC.P j E g g E Q ;.w.;.Q E L D.'.K.K.|.^.*XA.` j ;.5.:.;.;.-.<.<./ f K _ D.`.^.^.(.*X;XC.U E E >.Q <.0.1.>.;./ s L t.H.(.OX",
"OX-X>X>XA.T j j g E R / 4.;.h L *./.T.T.K.K.^.|.*XA.T E <.Q E -.>.>.Q ! u L 6././.).|.(.(.OX;XC.T E Q -.-.1.>.E Q E L *.H.G.G.^.",
"H.%X%X%X:XV.T h E / R /  ./ ) &.m.F.T.).)./.|.).|.XXA.` ~ R E ;.-.~ j f ] b.M.H.T.R.T./.^.K.(._.r.` h ! ~ Q -.<.~ Y %.v.c.c.F.H.",
"K.Q.Q.|. X/.@.Y Q ,.! /  .' #.0.n.M.T.R.T././.).(. X`.B.] R ! / / ~ R ] 6.m.n.L.R.T.).T.I.K.H.(.'.@.Y h !  .<.| _ X.6.v.c.v.c.H.",
"F.T.T.H.H.H.b.' ` ! ^  .' K ,.6.m.M.U.U.T.U./.T.(.).).`.B.( a U U U L ^ 6.n.m.R.@XR.E.U.U.U.H.H.H.b.o.Y U 6.$.( U <.8.x.b.m.c.z.",
"F.F.U.U.H.c.c.| n _ U o.6 d / 4.m.m.U.m.U.L.H.U.U.T. XT.U.#._ U I c p ,.6.x.U.R.R.E.T.Y.U.F.b.c.c.c.&.N X.T N 6 j } 9.9.6.x.v.v.",
"8.F.U.U.v.&.&.X.p @ s.y 3 s / 7.m.x.m.L.F.m.F.8.F.Q.#XU.n...I Z A , s Q 3.9.q.U.L.v.v.L.I.U.L.b.c.&...a @ f.1 5 E <.m.6.7.8.&.4.",
"L.U.v.L.8. .| W 7 > * G 5 f E <.q.w.m.P.v.9.v.8.F.I.U.R.9. .5 o = 5 p / <.7.F.I.x.v.9.F.I.9.x.v.8.&.^ 7 . a.z 4 / 5.w.7.6.5.6.5.",
"E.m.m.q.<.| ^ 7 c ].*XA.' 0 g ;.7.5.q.P.m.9.9.9.9.9.L.P.4.R ) Z.N.( f / ;.7.9.5.9.m.x.F.9.9.8.4.6. .7 c A.{.N.J ! ! ;.5.<.<.9.x.",
"q.0.q.7.,.~ 7 L A.-X*X*X].o.R ;.1.1.w.q.w.m.5.9.6.9.4.5.E _ ~.&X-X].' h Q ;.7.5.0.q.9.9.6.5.4.4.$.R L B..X*X*XN.J f f ! ~ -.1.q.",
"5.w.3.<.>.g ` D.XX=X*X.XOX.XO.! 1.:.3.w.5.9.1.4.4.5.-.! ] G._.OX;X*X].] g ;.w.5.1.1.5.w.9.4.;./ g L B._.oX*X*X&XV.P 9 u p E 1.5.",
"5.:.1.>.>.` *.`.(.(.XXOXOX;XoX] E Q :.;.5.5.;.Q E R r O.H.!.|.OX*X|..X~.] ;.7.;.:.-.3.w.7.;.E ~ L u./.XXOXOXOXOX-XA.T s p E ! 1.",
";.Q -.>.) %.M.U.'.(.H.`. XOXOX^.` R Q ^ / E E W f P _ v.U.G.(.`.=X&XOXXX].] ~ Q ;.-.;.1.:.E j ` #.T.T. X`. XOX XOX;XA.I f W Q 4.",
"/ h E ` X.x.M.U.T.).T.|.Q.|.K.).J.` f ^ ! f f ! P _ 6.n.n.U.H.T.`. X$X XXXJ.o./ 4.Q ;.4.-.h Y %.n.U.T. X). X%X#X).`.=XA._ p /  .",
"! h Y ` 3.6.L.Y.Y.#XT.).T.).(.J.H.*._ ! U p ! P ` 2.7.x.v.F.H.F.T.).@X$X(.'.D.o. .!  .4./ ) T 7.x.F.F.T.R.T.%X%X X/.'.$XA._ / [ ",
"U n L j 3.9.m.Y.Y.).Y.U.R.T.T.U.c.n.X._ U p { L } 6.x.x.x.L.n.U.T.U.T.T.H.F.H.*._ U | | ( P } 6.9.F.F.U.).@X#X#X@X X/.U./.*._ T ",
"G q 2 R / 8.x.m.L.E.E.U.R.T.F.L.H.z...L S S q 5 ,.6.9.m.m.m.m.L.m.U.F.c.G.c.&.$.I N { _ e j } <.8.9.U.v.E.R.+X+XY.R.R.H.z.z.I A ",
"- 4 u R ! 4.9.v.v.9.m.L.E.+Xm.q.6.8.| 5 + p.6 5 Q <.5.9.q.q.P.E.F.L.F.F.v.6.$.| R ; s.t 5 h E | / $.8.m.v.E.L.L.E.m.Y.m.6. .u O ",
"j.( p f Q :.9.9.9.9.9.L.R.m.m.L.6.<.j J G h.Y p ! ,.4.6.9.5.m.q.0.q.L.8.$.4.8.^ 4 k = n 6 p E Q } / 4.6.9.U.P.m.m.9.m.5.$.E P H ",
">XV.L f E ;.4.5.5.6.5.q.P.9.q.9.4.-.K e..X>XS.L f ;.5.5.6.5.9.6.L.E.q.7.5.8.4.K _ ].*XA._ f 0 g >.E |  . .9.9.m.9.8.9./ ! L y.&X",
"*X*XN.P g E Q 4.4.5.3.7.0.9.5./ ~ W @.^..X.X-XA.P ! :.>.3.4.5.5.+XP.w.7.4.:.Q ) J.;X*X.XA.L f f h E E ;.;.6.7.9.1.5.6.g J t.!.{.",
"^.{..XV.K g ;.-.;.<./ <.5.5.<.j 7 O.H.(.XXOX*X,XW.W >.-.:.>.;.4.w.5.<.4.;.R ) J.&X.XXX.X*XW.` g R E j ! ! Q ,.;.;.;.:.P B.(.^.G.",
" X.XOX-Xy.P -.Q -.E E E 6.;.s g ] H.(.G.H.J.|.{.&XC.P ;.;.E >.! ;.5.! / R ) D./.`.XX(.|.oX:X[.) j E g E ! R R ! R -.[ *.'.'.^.(.",
" X|.(.XXOXr.W ~ 6.Q g Q 5.E s ] z.H.D.D.D.D.^.^.G.^.@.W ~ ;.j j 4.;.f s L =.T.T. X X X X).OX,XW.` h R Q h p f R h P O.M./.T./.%X",
" X X(.(._.(.@.T <.| p ! / R _ 8.n.z.n.D.U.T.H.K.H.G.G.O.^ E h Q 5.E s L %.x.b.T.`. X X X X XXX=XB.` !  .! K 7 u J ( 6.v.H.H.T.#X",
"R.`.`.T.H.).K.e.U p i p i c W 3.6.v.b.F.F.U.H.U.H.T.K.D.G T f  .Q f P X.5.n.8.U.T.R.T.T.T.T.(./.`.@._ ! U ! p L ( ..7.b.v.b.F.T.",
"U.Y.).T.T.H.H.l.' T i v x 6 j 6.9.9.L.L.U.U.U.U.U.T.F.H.&.' T | U Y L ,.<.9.L.U.F.L.U.U.T.T.T.H.H.n.X._ U U Y z !  .x.m.v.v.v.U.",
"m.).Y.T.U.L.v.$.! N D b , 9 Q <.7.0.L.L.v.U.m.U.U.H.F.F.c.| N S n q 9 ~ 4.5.L.L.F.v.T.Y.'.L.U.U.c.z...z A S c 4 W / 6.L.m.v.m.L.",
"L.Y.U.L.L.P.9.$.h ; i.m 2 R ,.-.:.7.m.q.7.v.x.8.z.8.9.v.8.^ : o V 2 f ! 4.0.q.q.m.m.x.U.P.L.m.m.8...^ 6 O p.< u K W 5.w.6.v.v.v.",
"P.M.m.m.9.L.6./ e O.Z.r.7 f / ,.5.9.6.L.9.9.7.9.6.4.4.8.<.7 ( g.r.i f ;.:.9.0.0.q.m.m.L.P.Y.m.9.5.} R e A g._ i 7 g / 4.4.6.6.8.",
"x.q.m.q.5.7.:.r O.&X-X{.O.p ! ;.5.w.q.L.w.9.9.6.3. ./ / / o.~.*X{.e.K Q 1.:.3.9.w.7.q.q.q.+XL.9.6.j K e.{..XS._ 7 f R W ;.w.4.6.",
"4.7.7.5.-.<.K O.{.{.^..X{.o.R R ~ -.0.0.w.w.5.<.;.4.Q K ' H.XXoX&X&XC.P E ;.:.;.5.6.6.7.0.P.9.5.-.r @._.|.{.*X{.] 7 g R R  .4.4.",
";.<.w.7.-.K ' H.`.(.*X*X*XoXO.R j ;.<.7.5.5.:.>.! ;.f _ D.`.|.XX*X*X>XC.K E / d >.5.1.5.5.q.;.>.R @.G.^..X|.*X;X}.] s f Q Q ! } ",
"E -.9.>.R o.n./.(.).(..X&X-X.Xe.R ~ 5.4.-.5.;.g ~ ;._ c.H./. X|.|.XX-X>XV.R g 0 >.5.>.,.5.5.-.Q o.H./.(.XXOX X|.&X{.%.f R E g ~ ",
"E ! ,.R O.U.n.U.`.).).).^.(.XX{.@.W :.<.E 4.>.Q Q ] &.M.F.H.T.K.).XX XXX&Xr.K s E ;.E Q ;.~ W O.z.m.T.R.`. X X X(. X{.O.K R p E ",
"W p P ' 7.M.M.U.).+X)././.T.K.(.!.o.^ ~ ^ 4.R / _ | x.b.F.b.v.F.T. X)./.(.~.@.K h Q ! W ! T ' 4.v.U.T.Y.).).). X`.).`.(.o.h p p ",
"a U L ! 3.x.L.T.@X).).).).T.T.H.T.b.o.T | ^ ^ _ U <.6.x.F.v.9.F.T.T././.U.H.b.o.T ! ^ ! I c } 6.v.T.m.U.R.R.@XR.)./.G.T.*.O.a i ",
"z z u ~ 6.m.m.Y.@XR.).Y.R.U.H.K.H.b.&.N Y Y M 5 j  .9.L.x.v.v.v.I.U.T.).T.F.c.&.N Y U Y L f } $.7.L.U.Y.Y.E.I.R.R.U.H.b.z.X.o.I ",
"B < s ~ 4.m.P.P.+XY.E.L.R.U.v.F.H.6.| p $ f.6 2 R 4.6.6.9.9.9.F.m.R.Y.@XY.b.=. .U k C c 2 s !  .4.v.L.@XE.U.U.U.E.U.v.v.&.! z C "
};
